<svg width="1152" height="194" viewBox="0 0 1152 194" fill="none" xmlns="http://www.w3.org/2000/svg">
<path d="M1058.86 62.7258V89.5334C1074.06 72.675 1087.05 62.7258 1102.81 62.7258C1120.49 62.7258 1132.1 74.886 1132.1 102.246V167.469C1132.1 181.84 1135.97 185.709 1152 185.985V190.131H1093.69V185.985C1108.89 185.709 1113.31 182.669 1113.31 167.469V107.221C1113.31 84.5588 1105.57 76.8205 1093.13 76.8205C1080.97 76.8205 1067.98 87.3225 1058.86 96.7189V167.469C1058.86 182.669 1062.46 185.985 1078.49 185.985V190.131H1020.45V185.985C1035.65 185.985 1040.07 182.393 1040.07 167.469V97.2717C1040.07 82.6242 1037.03 79.0315 1029.57 79.0315C1026.53 79.0315 1022.66 80.1369 1019.9 81.2424L1018.24 77.6496L1054.72 62.7258H1058.86Z" fill="#141111"/>
<path d="M959.333 62.7258C989.733 62.7258 1017.37 89.8098 1017.37 125.461C1017.37 155.032 1000.79 194 958.504 194C927.827 194 901.296 164.152 901.296 129.607C901.296 92.5734 926.722 62.7258 959.333 62.7258ZM956.569 70.7405C938.053 70.7405 922.576 88.1516 922.576 118.276C922.576 157.52 939.158 185.985 964.031 185.985C988.904 185.985 996.09 158.625 996.09 137.345C996.09 92.2971 978.126 70.7405 956.569 70.7405Z" fill="#141111"/>
<path d="M884.015 62.7257V167.469C884.015 182.116 888.713 185.709 903.637 185.985V190.131H845.6V185.985C860.8 185.709 865.222 182.116 865.222 167.469V95.0606C865.222 81.795 862.458 79.0314 855.549 79.0314C852.509 79.0314 847.534 80.4132 845.047 81.5187L843.665 77.6495L879.316 62.7257H884.015ZM860.247 13.5324C860.247 6.62329 866.603 0.81958 873.236 0.81958C880.145 0.81958 885.949 6.62329 885.949 13.5324C885.949 20.4416 880.145 26.5217 873.236 26.5217C866.327 26.5217 860.247 20.4416 860.247 13.5324Z" fill="#141111"/>
<path d="M806.795 66.5949H835.813V74.0568H806.795V155.585C806.795 172.996 810.388 178.523 819.784 178.523C826.141 178.523 832.221 173.549 834.984 165.534H839.406C834.708 181.011 824.482 191.789 810.94 191.789C796.569 191.789 788.002 183.222 788.002 162.218V74.0568H767.551V69.9113C787.173 63.2785 796.017 53.0529 802.649 28.7327H806.795V66.5949Z" fill="#141111"/>
<path d="M760.246 140.938L764.115 142.596C759.97 170.232 742.282 194 713.816 194C684.798 194 662.688 168.298 662.688 127.672C662.688 88.4279 687.562 62.7258 719.62 62.7258C741.729 62.7258 760.246 76.5442 760.246 91.468C760.246 98.1008 756.1 102.799 748.639 102.799C740.9 102.799 736.478 97.8244 735.373 88.1516C734.267 75.4387 727.358 70.7405 715.751 70.7405C693.642 70.7405 679.27 89.8098 679.27 117.446C679.27 153.927 698.34 176.865 721.278 176.865C741.453 176.865 754.166 161.665 760.246 140.938Z" fill="#141111"/>
<path d="M642.367 62.7257V167.469C642.367 182.116 647.065 185.709 661.989 185.985V190.131H603.952V185.985C619.152 185.709 623.574 182.116 623.574 167.469V95.0606C623.574 81.795 620.811 79.0314 613.901 79.0314C610.861 79.0314 605.887 80.4132 603.399 81.5187L602.018 77.6495L637.669 62.7257H642.367ZM618.6 13.5324C618.6 6.62329 624.956 0.81958 631.589 0.81958C638.498 0.81958 644.302 6.62329 644.302 13.5324C644.302 20.4416 638.498 26.5217 631.589 26.5217C624.68 26.5217 618.6 20.4416 618.6 13.5324Z" fill="#141111"/>
<path d="M513.826 15.7434V90.6388H545.885C566.059 90.6388 572.969 85.9405 573.245 65.213H577.39V124.079H573.245C572.969 103.628 566.059 98.6534 545.885 98.6534H513.826V155.861C513.826 179.076 514.102 185.985 539.805 185.985V190.131H466.291V185.985C491.717 185.985 492.269 179.076 492.269 155.861V42.551C492.269 19.6125 491.717 11.3215 466.291 11.3215V7.17603H598.671L600.605 47.8019H597.289C589.551 20.4416 580.43 15.7434 553.07 15.7434H513.826Z" fill="#141111"/>
<path d="M422.642 169.403L449.726 93.1262C451.108 89.5334 453.043 83.7297 453.043 79.5842C453.043 74.0569 451.108 70.1877 438.395 69.635V66.595H476.534V69.635C466.032 70.4641 460.505 81.2424 458.017 88.7043L420.155 194H418.497L387.544 109.155L349.682 194H348.576L310.161 93.4025C302.699 73.7805 299.383 71.2932 287.775 69.635V66.595H334.481V69.635C329.783 69.635 321.216 71.8459 321.216 80.1369C321.216 84.8352 322.598 88.9807 323.979 92.8498L353.274 170.785L384.227 101.417L379.253 87.8752C373.449 72.675 368.198 69.635 359.631 69.635V66.595H407.166V69.635C402.744 69.635 391.689 70.1877 391.689 80.4133C391.689 83.4533 392.795 87.5988 393.9 90.6389L422.642 169.403Z" fill="#141111"/>
<path d="M290.349 113.301H201.359C201.359 160.283 221.534 180.734 245.025 180.734C267.135 180.734 280.677 167.745 286.757 142.872L289.52 144.254C285.098 170.785 267.411 194 241.156 194C209.098 194 189.199 166.363 189.199 128.777C189.199 85.6643 211.309 62.7258 243.92 62.7258C271.004 62.7258 290.349 83.4533 290.349 113.301ZM201.636 106.945H271.556C272.386 83.7297 258.015 69.0823 238.392 69.0823C220.705 69.0823 203.018 84.2824 201.636 106.945Z" fill="#141111"/>
<path d="M43.9423 41.9982V158.072C43.9423 185.985 46.9823 186.262 69.9208 187.091V190.131H10.7783V187.091C31.2294 186.262 36.7568 184.88 36.7568 158.072V32.8781C26.8076 20.4416 18.5166 10.2161 0 10.2161V7.17603H33.9931L163.885 167.469H164.438V39.7873C164.438 16.0198 160.293 10.7688 138.46 10.2161V7.17603H197.602V10.2161C176.598 11.0452 171.624 14.3616 171.624 39.7873V193.171H167.755L44.495 41.9982H43.9423Z" fill="#141111"/>
</svg>
