<svg width="1280" height="224" viewBox="0 0 1280 224" fill="none" xmlns="http://www.w3.org/2000/svg">
<path d="M1196.64 72.0178V102.921C1214.16 83.487 1229.13 72.0178 1247.29 72.0178C1267.68 72.0178 1281.06 86.0357 1281.06 117.576V192.763C1281.06 209.329 1285.52 213.79 1304 214.108V218.887H1236.78V214.108C1254.3 213.79 1259.4 210.285 1259.4 192.763V123.311C1259.4 97.1863 1250.48 88.2658 1236.14 88.2658C1222.12 88.2658 1207.15 100.372 1196.64 111.204V192.763C1196.64 210.285 1200.78 214.108 1219.26 214.108V218.887H1152.35V214.108C1169.87 214.108 1174.97 209.967 1174.97 192.763V111.841C1174.97 94.9562 1171.47 90.8146 1162.86 90.8146C1159.36 90.8146 1154.9 92.0889 1151.71 93.3633L1149.8 89.2216L1191.86 72.0178H1196.64Z" fill="#D82B24"/>
<path d="M1081.9 72.0178C1116.94 72.0178 1148.8 103.24 1148.8 144.337C1148.8 178.426 1129.69 223.347 1080.94 223.347C1045.58 223.347 1014.99 188.94 1014.99 149.116C1014.99 106.425 1044.3 72.0178 1081.9 72.0178ZM1078.71 81.2569C1057.37 81.2569 1039.53 101.328 1039.53 136.054C1039.53 181.294 1058.64 214.108 1087.31 214.108C1115.99 214.108 1124.27 182.568 1124.27 158.037C1124.27 106.107 1103.56 81.2569 1078.71 81.2569Z" fill="#D82B24"/>
<path d="M995.067 72.0167V192.762C995.067 209.647 1000.48 213.789 1017.69 214.107V218.886H950.783V214.107C968.305 213.789 973.403 209.647 973.403 192.762V109.292C973.403 93.9993 970.217 90.8134 962.252 90.8134C958.748 90.8134 953.013 92.4063 950.146 93.6807L948.553 89.2205L989.651 72.0167H995.067ZM967.668 15.3079C967.668 7.3432 974.996 0.652832 982.642 0.652832C990.606 0.652832 997.297 7.3432 997.297 15.3079C997.297 23.2726 990.606 30.2816 982.642 30.2816C974.677 30.2816 967.668 23.2726 967.668 15.3079Z" fill="#D82B24"/>
<path d="M906.05 76.4755H939.502V85.0774H906.05V179.061C906.05 199.132 910.192 205.504 921.024 205.504C928.351 205.504 935.36 199.769 938.546 190.53H943.644C938.228 208.371 926.44 220.796 910.829 220.796C894.262 220.796 884.386 210.92 884.386 186.707V85.0774H860.811V80.2986C883.43 72.6524 893.625 60.8647 901.271 32.8289H906.05V76.4755Z" fill="#D82B24"/>
<path d="M852.399 162.178L856.859 164.09C852.081 195.949 831.691 223.347 798.876 223.347C765.425 223.347 739.938 193.719 739.938 146.886C739.938 101.647 768.611 72.0178 805.567 72.0178C831.054 72.0178 852.399 87.9473 852.399 105.151C852.399 112.797 847.62 118.213 839.019 118.213C830.098 118.213 825.001 112.479 823.726 101.328C822.452 86.6729 814.487 81.2569 801.107 81.2569C775.619 81.2569 759.053 103.24 759.053 135.098C759.053 177.152 781.035 203.595 807.478 203.595C830.735 203.595 845.39 186.073 852.399 162.178Z" fill="#D82B24"/>
<path d="M716.509 72.0167V192.762C716.509 209.647 721.925 213.789 739.129 214.107V218.886H672.225V214.107C689.748 213.789 694.845 209.647 694.845 192.762V109.292C694.845 93.9993 691.659 90.8134 683.694 90.8134C680.19 90.8134 674.455 92.4063 671.588 93.6807L669.995 89.2205L711.093 72.0167H716.509ZM689.11 15.3079C689.11 7.3432 696.438 0.652832 704.084 0.652832C712.049 0.652832 718.739 7.3432 718.739 15.3079C718.739 23.2726 712.049 30.2816 704.084 30.2816C696.119 30.2816 689.11 23.2726 689.11 15.3079Z" fill="#D82B24"/>
<path d="M568.326 17.8582V104.196H605.282C628.539 104.196 636.504 98.7797 636.822 74.8856H641.601V142.745H636.822C636.504 119.169 628.539 113.435 605.282 113.435H568.326V179.383C568.326 206.144 568.644 214.109 598.273 214.109V218.888H513.528V214.109C542.838 214.109 543.476 206.144 543.476 179.383V48.7613C543.476 22.3184 542.838 12.7608 513.528 12.7608V7.98193H666.132L668.362 54.8145H664.539C655.619 23.2742 645.105 17.8582 613.565 17.8582H568.326Z" fill="#D82B24"/>
<path d="M463.213 194.993L494.435 107.063C496.028 102.921 498.258 96.2305 498.258 91.4517C498.258 85.0799 496.028 80.6197 481.373 79.9825V76.478H525.338V79.9825C513.232 80.9383 506.86 93.3632 503.993 101.965L460.346 223.347H458.435L422.753 125.541L379.106 223.347H377.832L333.548 107.381C324.946 84.7613 321.123 81.894 307.742 79.9825V76.478H361.584V79.9825C356.168 79.9825 346.291 82.5312 346.291 92.0889C346.291 97.5049 347.884 102.284 349.477 106.744L383.248 196.586L418.93 116.62L413.195 101.009C406.505 83.487 400.451 79.9825 390.575 79.9825V76.478H445.372V79.9825C440.275 79.9825 427.532 80.6197 427.532 92.4075C427.532 95.9119 428.806 100.691 430.08 104.195L463.213 194.993Z" fill="#D82B24"/>
<path d="M310.715 130.32H208.129C208.129 184.48 231.386 208.055 258.466 208.055C283.953 208.055 299.564 193.081 306.573 164.409L309.759 166.001C304.662 196.586 284.272 223.347 254.006 223.347C217.05 223.347 194.111 191.489 194.111 148.16C194.111 98.4607 219.598 72.0178 257.192 72.0178C288.414 72.0178 310.715 95.912 310.715 130.32ZM208.448 122.992H289.051C290.007 96.2306 273.44 79.3454 250.82 79.3454C230.43 79.3454 210.041 96.8677 208.448 122.992Z" fill="#D82B24"/>
<path d="M26.6556 48.1241V181.931C26.6556 214.109 30.1601 214.427 56.6029 215.383V218.888H-11.575V215.383C12.0005 214.427 18.3723 212.834 18.3723 181.931V37.6107C6.90309 23.2742 -2.65457 11.4864 -24 11.4864V7.98193H15.1864L164.923 192.763H165.56V45.5754C165.56 18.1768 160.781 12.1236 135.613 11.4864V7.98193H203.791V11.4864C179.578 12.4422 173.844 16.2652 173.844 45.5754V222.392H169.383L27.2928 48.1241H26.6556Z" fill="#D82B24"/>
</svg>
